HIERARCHY
ROOT Hips
{
	OFFSET 0.000000 0.000000 0.000000
	CHANNELS 6 Xposition Yposition Zposition Zrotation Yrotation Xrotation 
	JOINT LHipJoint
	{
		OFFSET 0.000000 0.000000 0.000000
		CHANNELS 3 Zrotation Yrotation Xrotation
		JOINT LeftUpLeg
		{
			OFFSET 1.363060 -1.794630 0.839290
			CHANNELS 3 Zrotation Yrotation Xrotation
			JOINT LeftLeg
			{
				OFFSET 2.448110 -6.726130 0.000000
				CHANNELS 3 Zrotation Yrotation Xrotation
				JOINT LeftFoot
				{
					OFFSET 2.562200 -7.039590 0.000000
					CHANNELS 3 Zrotation Yrotation Xrotation
					JOINT LeftToeBase
					{
						OFFSET 0.157640 -0.433110 2.322550
						CHANNELS 3 Zrotation Yrotation Xrotation
						End Site
						{
							OFFSET 0.000000 0.000000 0.000000
						}
					}
				}
			}
		}
	}
	JOINT RHipJoint
	{
		OFFSET 0.000000 0.000000 0.000000
		CHANNELS 3 Zrotation Yrotation Xrotation
		JOINT RightUpLeg
		{
			OFFSET -1.305520 -1.794630 0.839290
			CHANNELS 3 Zrotation Yrotation Xrotation
			JOINT RightLeg
			{
				OFFSET -2.542530 -6.985550 0.000000
				CHANNELS 3 Zrotation Yrotation Xrotation
				JOINT RightFoot
				{
					OFFSET -2.568260 -7.056230 0.000000
					CHANNELS 3 Zrotation Yrotation Xrotation
					JOINT RightToeBase
					{
						OFFSET -0.164730 -0.452590 2.363150
						CHANNELS 3 Zrotation Yrotation Xrotation
						End Site
						{
							OFFSET 0.000000 0.000000 0.000000
						}
					}
				}
			}
		}
	}
	JOINT LowerBack
	{
		OFFSET 0.000000 0.000000 0.000000
		CHANNELS 3 Zrotation Yrotation Xrotation
		JOINT Spine
		{
			OFFSET 0.028270 2.035590 -0.193380
			CHANNELS 3 Zrotation Yrotation Xrotation
			JOINT Spine1
			{
				OFFSET 0.056720 2.048850 -0.042750
				CHANNELS 3 Zrotation Yrotation Xrotation
				JOINT Neck
				{
					OFFSET 0.000000 0.000000 0.000000
					CHANNELS 3 Zrotation Yrotation Xrotation
					JOINT Neck1
					{
						OFFSET -0.054170 1.746240 0.172020
						CHANNELS 3 Zrotation Yrotation Xrotation
						JOINT Head
						{
							OFFSET 0.104070 1.761360 -0.123970
							CHANNELS 3 Zrotation Yrotation Xrotation
							End Site
							{
								OFFSET 0.000000 0.000000 0.000000
							}
						}
					}
				}
				JOINT LeftShoulder
				{
					OFFSET 0.000000 0.000000 0.000000
					CHANNELS 3 Zrotation Yrotation Xrotation
					JOINT LeftArm
					{
						OFFSET 3.362410 1.200890 -0.311210
						CHANNELS 3 Zrotation Yrotation Xrotation
						JOINT LeftForeArm
						{
							OFFSET 4.983000 -0.000000 -0.000000
							CHANNELS 3 Zrotation Yrotation Xrotation
							JOINT LeftHand
							{
								OFFSET 3.483560 -0.000000 -0.000000
								CHANNELS 3 Zrotation Yrotation Xrotation
								JOINT LeftFingerBase
								{
									OFFSET 0.000000 0.000000 0.000000
									CHANNELS 3 Zrotation Yrotation Xrotation
									JOINT LeftHandIndex1
									{
										OFFSET 0.715260 -0.000000 -0.000000
										CHANNELS 3 Zrotation Yrotation Xrotation
										End Site
										{
											OFFSET 0.000000 0.000000 0.000000
										}
									}
								}
								JOINT LThumb
								{
									OFFSET 0.000000 0.000000 0.000000
									CHANNELS 3 Zrotation Yrotation Xrotation
									End Site
									{
										OFFSET 0.000000 0.000000 0.000000
									}
								}
							}
						}
					}
				}
				JOINT RightShoulder
				{
					OFFSET 0.000000 0.000000 0.000000
					CHANNELS 3 Zrotation Yrotation Xrotation
					JOINT RightArm
					{
						OFFSET -3.136600 1.374050 -0.404650
						CHANNELS 3 Zrotation Yrotation Xrotation
						JOINT RightForeArm
						{
							OFFSET -5.241900 -0.000000 -0.000000
							CHANNELS 3 Zrotation Yrotation Xrotation
							JOINT RightHand
							{
								OFFSET -3.444170 -0.000000 -0.000000
								CHANNELS 3 Zrotation Yrotation Xrotation
								JOINT RightFingerBase
								{
									OFFSET 0.000000 0.000000 0.000000
									CHANNELS 3 Zrotation Yrotation Xrotation
									JOINT RightHandIndex1
									{
										OFFSET -0.622530 -0.000000 -0.000000
										CHANNELS 3 Zrotation Yrotation Xrotation
										End Site
										{
											OFFSET 0.000000 0.000000 0.000000
										}
									}
								}
								JOINT RThumb
								{
									OFFSET 0.000000 0.000000 0.000000
									CHANNELS 3 Zrotation Yrotation Xrotation
									End Site
									{
										OFFSET 0.000000 0.000000 0.000000
									}
								}
							}
						}
					}
				}
			}
		}
	}
}
MOTION
Frames: 6
Frame Time: 0.033333
-0.051002 16.479140 -0.051002 -3.258787 -3.095522 4.040800 -2.006948 18.554758 3.285760 -16.339403 -6.031280 -14.379805 -8.574249 -10.291685 -28.248943 5.111247 20.512979 49.398701 0.000000 0.000000 0.000000 -2.807827 -21.264775 -6.119453 31.537035 3.811434 -2.805166 -1.890211 -4.827126 20.951872 -0.565174 11.084670 -28.591290 0.000000 0.000000 0.000000 1.699861 0.662381 5.850916 2.769417 0.391778 13.710693 0.389959 1.694149 -10.648430 5.690618 -0.897992 -9.342165 -2.175205 -0.177857 -1.512036 0.000000 0.000000 0.000000 0.676142 11.352296 8.710246 -69.547194 -3.923384 20.539937 -16.565356 -76.995249 0.465567 1.947772 -14.655402 0.226916 1.995567 -14.654552 0.000000 0.000000 0.000000 0.000000 0.000000 0.000000 0.000000 -5.676687 -10.561412 8.126909 67.263701 5.349850 18.552940 17.487432 75.411227 0.351895 -0.893037 12.183914 0.173499 -0.914995 12.186107 0.000000 0.000000 0.000000 0.000000 0.000000 0.000000 0.000000 
-0.042699 16.508576 0.106331 -2.898777 -3.140692 4.158914 -1.707332 18.610839 3.136186 -17.191989 -5.934592 -13.868039 -8.418126 -10.026126 -27.417137 4.472721 19.533633 47.140368 0.000000 0.000000 0.000000 -2.561949 -21.311787 -5.753369 31.005096 4.651951 -3.661876 -2.677753 -5.129261 22.860690 -0.543229 11.061462 -28.667543 0.000000 0.000000 0.000000 1.508428 0.691658 5.704842 2.602879 0.377618 13.736581 0.381793 1.658981 -10.747461 5.590553 -0.876498 -9.211841 -2.089462 -0.169378 -1.460343 0.000000 0.000000 0.000000 0.600466 11.390928 8.720404 -69.474924 -3.902503 20.635127 -16.772228 -76.848975 0.471594 1.884874 -14.619035 0.230037 1.931209 -14.618619 0.000000 0.000000 0.000000 0.000000 0.000000 0.000000 0.000000 -5.517283 -10.721636 8.109561 67.127248 5.298178 18.565950 17.630766 75.224880 0.351266 -0.869950 12.145047 0.173219 -0.891545 12.147300 0.000000 0.000000 0.000000 0.000000 0.000000 0.000000 0.000000 
-0.032143 16.539832 0.263068 -2.541221 -3.158045 4.285004 -1.438012 18.643515 2.962285 -18.011394 -5.849743 -13.387762 -8.262455 -9.735380 -26.492107 3.877345 18.516090 44.815578 0.000000 0.000000 0.000000 -2.293359 -21.296404 -5.360816 30.392010 5.466374 -4.536276 -3.395537 -5.413100 24.648632 -0.501509 10.959012 -28.623178 0.000000 0.000000 0.000000 1.321750 0.710600 5.551190 2.440401 0.354262 13.758405 0.374501 1.615311 -10.845194 5.490992 -0.855355 -9.080358 -2.004924 -0.161146 -1.408604 0.000000 0.000000 0.000000 0.524398 11.425072 8.731749 -69.402635 -3.882655 20.728756 -16.979608 -76.701508 0.477533 1.822200 -14.582259 0.233112 1.867091 -14.582267 0.000000 0.000000 0.000000 0.000000 0.000000 0.000000 0.000000 -5.358638 -10.885547 8.091848 66.989972 5.245608 18.577716 17.773693 75.038255 0.350603 -0.847148 12.106056 0.172921 -0.868387 12.108368 0.000000 0.000000 0.000000 0.000000 0.000000 0.000000 0.000000 
-0.019382 16.572460 0.418806 -2.190181 -3.149301 4.415988 -1.198487 18.658162 2.768042 -18.793170 -5.777598 -12.942615 -8.110411 -9.419752 -25.480080 3.329725 17.471760 42.446038 0.000000 0.000000 0.000000 -2.010204 -21.225719 -4.949592 29.711172 6.239952 -5.413562 -4.042771 -5.682352 26.310508 -0.443398 10.788610 -28.469482 0.000000 0.000000 0.000000 1.143189 0.719347 5.393141 2.282942 0.322179 13.777092 0.367510 1.563796 -10.941732 5.391778 -0.834553 -8.947731 -1.921551 -0.153152 -1.356925 0.000000 0.000000 0.000000 0.447812 11.455172 8.744138 -69.330317 -3.863779 20.820785 -17.187399 -76.552882 0.483383 1.759777 -14.545075 0.236142 1.803241 -14.545497 0.000000 0.000000 0.000000 0.000000 0.000000 0.000000 0.000000 -5.200934 -11.052737 8.073751 66.851972 5.192378 18.588259 17.916184 74.851346 0.349906 -0.824632 12.066936 0.172606 -0.845522 12.069305 0.000000 0.000000 0.000000 0.000000 0.000000 0.000000 0.000000 
-0.004983 16.606052 0.573183 -1.848775 -3.117011 4.549251 -0.988141 18.659436 2.558001 -19.534013 -5.719331 -12.535471 -7.958412 -9.081083 -24.389988 2.831559 16.410856 40.055507 0.000000 0.000000 0.000000 -1.718939 -21.107178 -4.526842 28.974902 6.961763 -6.281533 -4.616057 -5.942742 27.846426 -0.371839 10.559815 -28.218348 0.000000 0.000000 0.000000 0.975221 0.718442 5.233400 2.131142 0.282083 13.793450 0.360332 1.505257 -11.037168 5.292792 -0.814074 -8.813977 -1.839270 -0.145385 -1.305403 0.000000 0.000000 0.000000 0.370617 11.481753 8.757432 -69.257947 -3.845792 20.911190 -17.395515 -76.403135 0.489144 1.697630 -14.507486 0.239126 1.739682 -14.508312 0.000000 0.000000 0.000000 0.000000 0.000000 0.000000 0.000000 -5.044303 -11.222744 8.055266 66.713342 5.138722 18.597608 18.058219 74.664141 0.349175 -0.802401 12.027683 0.172273 -0.822949 12.030107 0.000000 0.000000 0.000000 0.000000 0.000000 0.000000 0.000000 
0.011649 16.640215 0.726538 -1.517839 -3.064435 4.682511 -0.805387 18.654969 2.335711 -20.235297 -5.674399 -12.167318 -7.815762 -8.717040 -23.222914 2.381515 15.340526 37.649605 0.000000 0.000000 0.000000 -1.425893 -20.952168 -4.096804 28.198736 7.628946 -7.132302 -5.132757 -6.193353 29.266957 -0.291170 10.285207 -27.879680 0.000000 0.000000 0.000000 0.821447 0.708806 5.073277 1.979142 0.235199 13.808715 0.354716 1.440177 -11.127234 5.195463 -0.794250 -8.680267 -1.758879 -0.137895 -1.254869 0.000000 0.000000 0.000000 0.296560 11.501703 8.771191 -69.186704 -3.831185 20.995935 -17.588620 -76.262827 0.494463 1.640328 -14.472596 0.241879 1.681087 -14.473790 0.000000 0.000000 0.000000 0.000000 0.000000 0.000000 0.000000 -4.892146 -11.390803 8.035354 66.579943 5.085903 18.607329 18.190070 74.489992 0.348519 -0.781856 11.991525 0.171975 -0.802091 11.993999 0.000000 0.000000 0.000000 0.000000 0.000000 0.000000 0.000000 
